<svg width="29" height="29" viewBox="0 0 29 29" fill="none" xmlns="http://www.w3.org/2000/svg">
<path d="M22.6097 0H6.91977C3.39048 0 0.529419 2.86106 0.529419 6.39035V22.0802C0.529419 25.6095 3.39048 28.4706 6.91977 28.4706H22.6097C26.139 28.4706 29 25.6095 29 22.0802V6.39035C29 2.86106 26.139 0 22.6097 0Z" fill="#F9F9F9"/>
<path d="M11.4397 12.3151H9.16157V18.9866H11.4397V12.3151Z" fill="#646464"/>
<path d="M11.0567 9.20164C10.8396 9.07017 10.5844 9 10.3234 9C10.1493 9 9.97681 9.03124 9.816 9.09194C9.6552 9.15264 9.5092 9.24159 9.38641 9.35367C9.26361 9.46576 9.16644 9.59878 9.10049 9.74507C9.03453 9.89136 9.0011 10.048 9.0021 10.2061C9.0036 10.443 9.08236 10.6742 9.22846 10.8705C9.37456 11.0668 9.58144 11.2194 9.823 11.3091C10.0646 11.3988 10.33 11.4216 10.5858 11.3745C10.8416 11.3275 11.0763 11.2127 11.2604 11.0448C11.4444 10.8768 11.5695 10.6631 11.6199 10.4306C11.6702 10.1982 11.6436 9.95744 11.5434 9.73872C11.4432 9.51999 11.2738 9.3331 11.0567 9.20164Z" fill="#646464"/>
<path d="M15.0965 12.3147H12.9019L12.8943 19H15.1725V15.6987C15.1725 14.8303 15.3547 13.9895 16.5393 13.9895C17.7239 13.9895 17.724 14.9888 17.724 15.7607V18.9862H20.0021V15.3265C20.0021 13.5277 19.5389 12.1493 17.2607 12.1493C16.8265 12.1339 16.3959 12.2258 16.0147 12.4151C15.6336 12.6045 15.3162 12.8842 15.0965 13.2245V12.3147Z" fill="#646464"/>
</svg>
