<svg width="29" height="29" viewBox="0 0 29 29" fill="none" xmlns="http://www.w3.org/2000/svg">
<path d="M28.4688 24.5163C28.4688 25.5651 28.059 26.5709 27.3297 27.3124C26.6004 28.054 25.6113 28.4706 24.5799 28.4706H4.35764C3.32624 28.4706 2.33709 28.054 1.60778 27.3124C0.878471 26.5709 0.46875 25.5651 0.46875 24.5163V3.95425C0.46875 2.90552 0.878471 1.89974 1.60778 1.15817C2.33709 0.416607 3.32624 0 4.35764 0H24.5799C25.6113 0 26.6004 0.416607 27.3297 1.15817C28.059 1.89974 28.4688 2.90552 28.4688 3.95425V24.5163Z" fill="#F9F9F9"/>
<path d="M19.8769 11.0042C19.4793 11.1894 18.9758 11.3633 18.5246 11.4211C18.9835 11.1349 19.7115 10.5391 19.8769 10C19.4482 10.2648 18.6729 10.5476 18.1672 10.6499C17.7633 10.1999 17.1872 10 16.549 10C15.3229 10 14.4678 11.0918 14.4678 12.3684V13.3158C12.6648 13.3158 10.9068 11.8725 9.81283 10.4737C9.61502 10.8262 9.51117 11.2283 9.51218 11.6375C9.51218 12.4992 10.2654 13.3736 10.8617 13.7895C10.498 13.7776 9.80923 13.4858 9.50947 13.3158V13.3428C9.50947 14.464 10.2582 15.2252 11.2728 15.4374C11.0876 15.4909 10.8617 15.6842 9.99269 15.6842C10.2749 16.6008 11.6934 17.0854 12.6648 17.1053C11.9048 17.7244 10.5498 18.0526 9.50947 18.0526C9.32962 18.0526 9.23226 18.0631 9.05872 18.0417C10.0405 18.6954 11.4117 19 12.6648 19C16.7473 19 18.9754 15.7231 18.9754 12.6668C18.9754 12.5664 18.9722 12.2301 18.9673 12.1316C19.4036 11.8085 19.5803 11.4703 19.8769 11.0042Z" fill="#646464"/>
</svg>
